<svg xmlns="http://www.w3.org/2000/svg" viewBox="0 0 64 64">
  <path d="M35 6c-1.5-4-5-5-7-4.5S25 4 26 6c.8 1.5 4 2.5 7 1.5" fill="#4a7c3f"/>
  <path d="M29 6c1.5-4 5-5 7-4.5S39 4 38 6c-.8 1.5-4 2.5-7 1.5" fill="#2e7d32"/>
  <path d="M32 10C22 8 12 16 10 28s4 26 16 30c2 .7 4.5.7 6.5 0C44 54 50 40 48 28S42 8 32 10z" fill="#e53935"/>
  <path d="M32 10c-2 0-4 .5-5.5 1.5C30 10 34 10.5 37.5 14c4 4 6 10 6 18 0 6-2 12-5 16 3-2 5.5-5 7-9 3-8 3-18-1-24-2-3-5-5-8-5z" fill="#c62828" opacity=".3"/>
  <ellipse cx="22" cy="30" rx="5" ry="8" fill="#ef5350" opacity=".4"/>
  <path d="M32 4c0-2 1.5-3.5 3-3.5S36 2 35.5 4c-.3 1-1.5 2-3 2" fill="#5d4037" stroke="#5d4037" stroke-width=".5"/>
</svg>
